<svg height="512pt" viewBox="-28 0 512 512.002" width="512pt" xmlns="http://www.w3.org/2000/svg"><path d="m444.578125 82.941406c-17.269531-4.210937-33.078125-13.125-45.726563-25.769531-12.644531-12.648437-21.558593-28.460937-25.769531-45.726563l-2.789062-11.445312h-284.558594l-2.792969 11.445312c-4.210937 17.265626-13.121094 33.078126-25.769531 45.726563-12.644531 12.644531-28.457031 21.558594-45.726563 25.769531l-11.445312 2.792969v102.441406c0 70.253907 21.132812 137.921875 61.113281 195.695313 39.976563 57.769531 95.863281 101.386718 161.613281 126.140625l5.285157 1.992187 5.285156-1.992187c65.75-24.753907 121.632813-68.371094 161.613281-126.140625 39.980469-57.769532 61.109375-125.441406 61.109375-195.695313v-102.445312zm-18.554687 105.230469c0 64.125-19.289063 125.894531-55.777344 178.625-35.417969 51.175781-84.507813 90.1875-142.234375 113.097656-57.722657-22.910156-106.8125-61.921875-142.230469-113.097656-36.492188-52.730469-55.78125-114.5-55.78125-178.625v-79.457031c18.132812-6.285156 34.6875-16.632813 48.386719-30.332032 13.699219-13.699218 24.046875-30.25 30.328125-48.382812h238.59375c6.28125 18.132812 16.632812 34.683594 30.332031 48.382812 13.699219 13.699219 30.25 24.046876 48.382813 30.332032zm0 0"/><path d="m331.652344 67.445312-4.339844-7.449218h-198.597656l-4.339844 7.449218c-6.828125 11.71875-15.164062 22.535157-24.777344 32.148438-9.613281 9.617188-20.433594 17.949219-32.148437 24.777344l-7.449219 4.339844v59.460937c0 57.996094 17.445312 113.863281 50.449219 161.554687 28.175781 40.710938 66.597656 73.441407 111.113281 94.644532l6.449219 3.074218 6.449219-3.074218c44.515624-21.203125 82.9375-53.933594 111.117187-94.648438 33.003906-47.691406 50.449219-103.554687 50.449219-161.550781v-59.460937l-7.449219-4.339844c-11.71875-6.828125-22.535156-15.164063-32.148437-24.777344-9.613282-9.613281-17.949219-20.429688-24.777344-32.148438zm34.375 120.726563c0 51.871094-15.601563 101.832031-45.117188 144.484375-23.828125 34.429688-55.839844 62.46875-92.898437 81.445312-37.054688-18.976562-69.066407-47.015624-92.894531-81.445312-29.519532-42.652344-45.117188-92.613281-45.117188-144.484375v-42.457031c11.101562-7.179688 21.433594-15.535156 30.808594-24.90625 9.375-9.375 17.726562-19.707032 24.910156-30.8125h164.589844c7.183594 11.105468 15.535156 21.4375 24.90625 30.8125 9.375 9.375 19.710937 17.726562 30.8125 24.910156zm0 0"/><path d="m228.011719 146.992188c-32.976563 0-59.808594 26.832031-59.808594 59.808593 0 27.800781 19.066406 51.230469 44.808594 57.902344v54.121094h30v-54.121094c25.742187-6.671875 44.808593-30.101563 44.808593-57.902344 0-32.976562-26.828124-59.808593-59.808593-59.808593zm0 89.617187c-16.4375 0-29.808594-13.371094-29.808594-29.808594s13.371094-29.808593 29.808594-29.808593 29.8125 13.371093 29.8125 29.808593-13.375 29.808594-29.8125 29.808594zm0 0"/></svg>